<svg xmlns="http://www.w3.org/2000/svg" width="24" height="13" viewBox="0 0 24 13">
    <path fill="#FFF" fill-rule="evenodd" d="M23.058.571h-3.894a.886.886 0 0 0-.775.443s-1.553 2.73-2.052 3.65c-1.343 2.475-2.212 1.698-2.212.55v-3.96c0-.69-.585-1.248-1.307-1.248H9.89a2.39 2.39 0 0 0-2.072.918s1.487-.23 1.487 1.683c0 .475.025 1.839.049 2.983a.824.824 0 0 1-.546.787.892.892 0 0 1-.961-.217A24.03 24.03 0 0 1 4.89 1.026a.824.824 0 0 0-.746-.455H.605A.61.61 0 0 0 .11.816a.552.552 0 0 0-.071.529C1.112 4.158 5.74 13 11.023 13h2.224c.485 0 .878-.375.878-.839V10.88c0-.329.205-.626.52-.757a.894.894 0 0 1 .935.156l2.661 2.387c.239.215.555.334.883.334h3.495c1.685 0 1.685-1.117.766-1.98-.647-.609-2.98-2.957-2.98-2.957a1.112 1.112 0 0 1-.093-1.496c.754-.947 1.988-2.499 2.511-3.163.716-.909 2.01-2.833.235-2.833z"/>
</svg>
