<svg xmlns="http://www.w3.org/2000/svg" width="111" height="80" viewBox="0 0 111 80">
    <defs>
        <linearGradient id="a" x1="23.943%" x2="76.057%" y1="0%" y2="100%">
            <stop offset="0%" stop-color="#2DA1FF"/>
            <stop offset="100%" stop-color="#1468FF"/>
        </linearGradient>
        <linearGradient id="b" x1="0%" y1="1.117%" y2="98.883%">
            <stop offset="0%" stop-color="#2DA1FF"/>
            <stop offset="100%" stop-color="#1468FF"/>
        </linearGradient>
        <linearGradient id="c" x1="0%" y1="11.237%" y2="88.763%">
            <stop offset="0%" stop-color="#2DA1FF"/>
            <stop offset="100%" stop-color="#1468FF"/>
        </linearGradient>
    </defs>
    <g fill="none" fill-rule="evenodd">
        <path fill="url(#a)" d="M48.123 21.806v-4.055h.212c.861 0 1.541-.79 1.541-1.651V1.57A1.53 1.53 0 0 0 48.335.028H8.709A1.484 1.484 0 0 0 7.224 1.57V16.1c0 .86.625 1.652 1.485 1.652h.268v4.061c0 .01-.055.02-.075.03-.076.038-.16.077-.234.116-.096.05-.197.099-.293.15-.076.04-.153.084-.23.127-.091.051-.184.102-.275.156-.077.045-.152.092-.227.137l-.265.165c-.074.048-.15.097-.224.147l-.253.171-.22.156a14.496 14.496 0 0 0-.698.533 15.815 15.815 0 0 0-.44.369l-.203.179c-.075.067-.148.137-.223.205-.065.062-.132.123-.196.186-.073.07-.144.142-.216.214l-.188.19c-.071.074-.14.15-.21.225l-.179.195c-.07.077-.138.158-.207.238-.056.065-.113.128-.167.195-.072.086-.141.173-.21.26l-.149.185c-.086.11-.169.223-.251.336-.048.065-.095.128-.141.193-.092.13-.184.261-.273.393l-.124.192c-.062.097-.125.193-.186.29l-.13.217c-.054.092-.11.183-.163.276l-.127.23-.149.272-.121.24a13.18 13.18 0 0 0-.137.274c-.039.081-.076.163-.114.244a12.22 12.22 0 0 0-.233.528l-.116.283c-.034.084-.066.169-.098.253a13.038 13.038 0 0 0-.195.544 14.566 14.566 0 0 0-.333 1.11c-.027.1-.051.203-.076.304a18.796 18.796 0 0 0-.275 1.409c-.016.11-.03.22-.044.33-.01.084-.022.167-.031.251-.013.116-.023.234-.034.35-.007.078-.015.156-.021.235-.01.13-.016.262-.022.393-.004.066.012.132.01.197-.008.197.009.396.009.594v34.06a8.758 8.758 0 0 0 8.739 8.762H48.29a8.806 8.806 0 0 0 8.791-8.766V36.28c.009-3.2-.928-6.332-2.694-9a15.547 15.547 0 0 0-6.265-5.475zM10.34 3.144h36.42v11.491H10.34V3.145zM53.966 70.33a5.688 5.688 0 0 1-5.68 5.655H8.763a5.64 5.64 0 0 1-5.63-5.65V36.28a13.11 13.11 0 0 1 2.453-7.649c.184-.256.367-.506.57-.747.1-.121.199-.287.304-.404a13.324 13.324 0 0 1 4.627-3.301h.014c.592-.185.994-.733.992-1.353V17.75h32.914v5.076c-.002.639.387 1.213.98 1.449 4.776 1.885 7.98 6.71 7.98 12.005V70.33z"/>
        <path fill="url(#b)" d="M44.423 43.655H34.88V34.11c0-.86-.698-1.558-1.558-1.558h-9.544c-.86 0-1.558.698-1.558 1.558v9.544h-9.348c-.86 0-1.558.697-1.558 1.558v8.959c0 .86.697 1.558 1.558 1.558h9.348v9.543c0 .86.698 1.558 1.558 1.558h9.544c.86 0 1.558-.697 1.558-1.558V55.73h9.543c.86 0 1.558-.698 1.558-1.558v-8.96c0-.86-.698-1.557-1.558-1.557zm-1.558 8.959h-9.543c-.86 0-1.558.697-1.558 1.558v9.543h-6.428v-9.543c0-.86-.697-1.558-1.558-1.558H14.43V46.77h9.348c.86 0 1.558-.698 1.558-1.558v-9.544h6.428v9.544c0 .86.697 1.558 1.558 1.558h9.543v5.843z"/>
        <path fill="url(#c)" d="M104.822 41.503l-18.296-6.708a8.284 8.284 0 0 0-5.845 15.5 8.276 8.276 0 0 0 .937 16.5h19.488a8.271 8.271 0 0 0 7.26-12.258 8.277 8.277 0 0 0-3.544-13.034zm2.001 9.557c-.132.36-.305.704-.514 1.025a8.243 8.243 0 0 0-5.203-1.845H92.9l3.163-8.63 7.685 2.818a5.174 5.174 0 0 1 3.074 6.632zm-27.838-6.313a5.166 5.166 0 0 1 6.468-7.026l7.686 2.818-2.731 7.45a1.558 1.558 0 0 0-.928-1.996l-6.223-2.282a1.557 1.557 0 1 0-1.072 2.926l6.222 2.281a1.554 1.554 0 0 0 1.998-.925l-.824 2.247h-.007l-7.679-2.815a5.13 5.13 0 0 1-2.91-2.678zm-2.535 13.77a5.167 5.167 0 0 1 5.168-5.161h8.148v7.935a1.488 1.488 0 0 0-1.52-1.508h-6.628a1.558 1.558 0 0 0 0 3.116h6.629a1.565 1.565 0 0 0 1.52-1.599v2.378h-8.149a5.168 5.168 0 0 1-5.168-5.16zm24.656 5.161h-8.224V53.356h8.224a5.161 5.161 0 0 1 0 10.322z"/>
    </g>
</svg>
