<svg xmlns="http://www.w3.org/2000/svg" width="12" height="15" viewBox="0 0 12 15">
    <path fill="#008DFF" fill-rule="evenodd" d="M6.994 10.516c.42-.04 1.226-.843 1.646-.884.415-.037.828.09 1.154.354l1.12.918.667.544c.479.39.56 1.1.18 1.592l-1.294 1.768a.45.45 0 0 1-.406.19c-3.282-.328-6.252-2.12-8.114-4.896A11.562 11.562 0 0 1 .413.614.282.282 0 0 1 .62.417L3.073.022c.288-.06.587.001.83.169.244.168.41.428.464.722l.167.87.273 1.456c.08.422.002.86-.22 1.224-.227.375-1.287.742-1.507 1.116A8.439 8.439 0 0 0 7 10.598v-.082h-.006z"/>
</svg>
