<svg xmlns="http://www.w3.org/2000/svg" width="24" height="24" viewBox="0 0 24 24">
    <path fill="#FFF" fill-rule="evenodd" d="M23.37 4.136c.296.76.5 1.632.556 2.912C23.99 8.328 24 8.736 24 12c0 3.264-.019 3.672-.074 4.952-.056 1.27-.26 2.152-.557 2.912a5.865 5.865 0 0 1-1.381 2.124 5.865 5.865 0 0 1-2.124 1.381c-.76.297-1.632.501-2.912.557-1.28.065-1.688.074-4.952.074-3.264 0-3.672-.019-4.952-.074-1.27-.056-2.152-.26-2.912-.557a5.865 5.865 0 0 1-2.124-1.381 5.865 5.865 0 0 1-1.381-2.124c-.297-.76-.501-1.632-.557-2.912C.01 15.672 0 15.264 0 12c0-3.264.019-3.672.074-4.952.056-1.27.26-2.152.557-2.912a5.865 5.865 0 0 1 1.381-2.124A5.865 5.865 0 0 1 4.136.631C4.896.334 5.768.13 7.048.074 8.328.01 8.736 0 12 0c3.264 0 3.672.019 4.952.074 1.27.056 2.152.26 2.912.557a5.865 5.865 0 0 1 2.124 1.381 5.865 5.865 0 0 1 1.381 2.124zM21.764 16.85c.056-1.261.074-1.65.074-4.85 0-3.2-.018-3.58-.074-4.85-.056-1.169-.25-1.8-.417-2.226a3.757 3.757 0 0 0-.9-1.381 3.717 3.717 0 0 0-1.382-.9c-.417-.167-1.057-.362-2.225-.417-1.261-.065-1.65-.075-4.85-.075-3.2 0-3.58.019-4.85.075-1.169.055-1.8.25-2.226.417a3.757 3.757 0 0 0-1.382.9 3.717 3.717 0 0 0-.9 1.381c-.166.418-.361 1.057-.417 2.226C2.151 8.41 2.142 8.8 2.142 12c0 3.2.019 3.58.074 4.85.056 1.169.25 1.8.418 2.226.222.565.482.964.9 1.381.417.418.825.687 1.381.9.417.167 1.057.362 2.226.417 1.26.065 1.641.075 4.85.075 3.208 0 3.58-.019 4.85-.075 1.168-.055 1.799-.25 2.225-.417a3.757 3.757 0 0 0 1.382-.9c.418-.417.686-.825.9-1.381.167-.418.361-1.057.417-2.226zM11.991 5.833A6.17 6.17 0 0 1 18.158 12a6.17 6.17 0 0 1-6.167 6.167A6.17 6.17 0 0 1 5.824 12a6.17 6.17 0 0 1 6.167-6.167zm0 10.173c2.207 0 4.006-1.799 4.006-4.006a4.007 4.007 0 1 0-4.006 4.006zm6.408-8.977a1.437 1.437 0 1 1 0-2.874 1.437 1.437 0 0 1 0 2.874z"/>
</svg>
