<svg xmlns="http://www.w3.org/2000/svg" width="158" height="83" viewBox="0 0 158 83">
    <defs>
        <linearGradient id="a" x1="0%" y1="19.565%" y2="80.435%">
            <stop offset="0%" stop-color="#2DA1FF"/>
            <stop offset="100%" stop-color="#1468FF"/>
        </linearGradient>
        <linearGradient id="b" x1="0%" y1="0%" y2="100%">
            <stop offset="0%" stop-color="#2DA1FF"/>
            <stop offset="100%" stop-color="#1468FF"/>
        </linearGradient>
        <linearGradient id="c" x1="0%" y1="12.499%" y2="87.501%">
            <stop offset="0%" stop-color="#2DA1FF"/>
            <stop offset="100%" stop-color="#1468FF"/>
        </linearGradient>
    </defs>
    <g fill="none" fill-rule="evenodd">
        <path fill="url(#a)" d="M67.078 7.854C59.896 2.79 50.066 0 39.398 0 28.731 0 18.901 2.79 11.72 7.854 4.162 13.184 0 20.763 0 29.194c0 13.568 5.235 21.069 9.626 24.972 5.471 4.864 13.005 7.31 22.463 7.31a63.831 63.831 0 0 0 7.471-.461c10.775-1.272 20.541-4.864 27.5-10.111 7.678-5.792 11.738-13.299 11.738-21.71-.001-8.431-4.163-16.01-11.72-21.34zm-1.675 40.854c-6.575 4.96-15.868 8.36-26.166 9.576-12.206 1.441-21.554-.636-27.784-6.173-3.97-3.53-8.703-10.37-8.703-22.916 0-7.622 3.65-14.224 10.554-19.094 6.722-4.74 15.989-7.35 26.094-7.35 10.106 0 19.373 2.61 26.095 7.35 6.904 4.87 10.554 11.472 10.554 19.094 0 7.514-3.68 14.262-10.644 19.513z"/>
        <path fill="url(#b)" d="M25.65 23.348a5.843 5.843 0 1 0-5.844 5.844 5.85 5.85 0 0 0 5.843-5.844zm-5.844 3.094a3.094 3.094 0 1 1 0-6.187 3.094 3.094 0 0 1 0 6.187zM25.305 42.082a5.328 5.328 0 1 0 0 10.655 5.328 5.328 0 0 0 0-10.655zm0 7.906a2.578 2.578 0 1 1 0-5.156 2.578 2.578 0 0 1 0 5.156zM53.663 41.05a5.5 5.5 0 1 0 5.5 5.5 5.506 5.506 0 0 0-5.5-5.5zm0 8.25a2.75 2.75 0 1 1 0-5.5 2.75 2.75 0 0 1 0 5.5zM40.773 23.176a4.64 4.64 0 1 0 0 9.281 4.64 4.64 0 0 0 0-9.28zm0 6.531a1.89 1.89 0 1 1 0-3.78 1.89 1.89 0 0 1 0 3.78zM52.976 16.473a3.953 3.953 0 1 0 0-7.905 3.953 3.953 0 0 0 0 7.905zm0-5.156a1.203 1.203 0 1 1 0 2.407 1.203 1.203 0 0 1 0-2.407zM61.746 29.192a5.15 5.15 0 1 0 10.302 0 5.15 5.15 0 0 0-10.302 0zm7.552 0a2.401 2.401 0 1 1-4.802 0 2.401 2.401 0 0 1 4.802 0z"/>
        <path fill="url(#c)" d="M156.071 21.672c-2.405.897-5.097 2.233-7.724 3.69 3.678-3.063 7.051-6.288 8.252-8.648a1.312 1.312 0 1 0-2.34-1.19c-1.414 2.782-6.938 7.454-12.03 11.343 2.432-2.548 5.054-5.573 7.066-8.6a1.312 1.312 0 0 0-2.186-1.453c-3.885 5.849-10.388 11.895-12.693 13.958l-.04-.048c-2.483-2.96-6.298-4.543-10.47-4.336-5.179.256-10.103 3.09-13.177 7.592L91.525 62.475c-.023.017-.046.032-.068.05a1.305 1.305 0 0 0-.452.721l-11.65 17.286a1.591 1.591 0 0 0 .083 1.929c.299.358.742.564 1.208.563.233-.001.463-.05.676-.145l51.304-22.76c4.932-2.13 8.587-6.406 9.779-11.437.984-4.152.096-8.263-2.434-11.281l-.957-1.142c2.403-1.55 8.532-5.262 13.146-5.951a1.312 1.312 0 0 0-.388-2.596 21.6 21.6 0 0 0-4.33 1.194c3.193-1.872 6.626-3.686 9.546-4.775a1.312 1.312 0 0 0-.917-2.459zm-16.22 26.405c-1.001 4.228-4.091 7.83-8.278 9.64l-48.038 21.31 8.977-13.32a13.145 13.145 0 0 0 2.109 1.594 1.312 1.312 0 0 0 1.364-2.242 10.458 10.458 0 0 1-1.984-1.562l5.774-8.568a19.342 19.342 0 0 0 3.553 2.869 1.312 1.312 0 1 0 1.397-2.222 16.674 16.674 0 0 1-3.447-2.877l6.332-9.396.607.724a22.726 22.726 0 0 0 4.44 4.05 1.312 1.312 0 1 0 1.5-2.153 20.106 20.106 0 0 1-3.927-3.582l-1.093-1.303 3.764-5.585c2.608-3.82 6.771-6.228 11.135-6.443.207-.01.413-.016.617-.016 3.132 0 5.854 1.2 7.71 3.416l5.598 6.676c1.992 2.376 2.681 5.653 1.89 8.99z"/>
    </g>
</svg>
