<svg xmlns="http://www.w3.org/2000/svg" xmlns:xlink="http://www.w3.org/1999/xlink" width="74" height="69" viewBox="0 0 74 69">
    <defs>
        <path id="a" d="M71.137 8.898l.162-.054c.54-.107.54-.911 0-1.018L36.838 0h-.216L2.215 7.826c-.54.107-.54.911 0 1.018l.648.107C1.458 8.63.27 9.701.27 11.15V45.99c0 .911.378 1.715 1.188 2.09.054.054 0 .054.054.108l.162.053 18.041 4.074 16.907 3.806h.162l17.069-3.86 18.202-4.127h.109c.864-.268 1.512-1.018 1.512-1.93V10.829c.054-1.287-1.242-2.252-2.539-1.93z"/>
        <radialGradient id="c" cx="129.991%" cy="-11.959%" r="320.552%" fx="129.991%" fy="-11.959%" gradientTransform="matrix(1 0 0 .78892 0 -.025)">
            <stop offset="0%" stop-color="#75CEFC"/>
            <stop offset="100%" stop-color="#00003D"/>
        </radialGradient>
        <path id="d" d="M71.137 8.898l.162-.054c.54-.107.54-.911 0-1.018L36.838 0h-.216L2.215 7.826c-.54.107-.54.911 0 1.018l.648.107C1.458 8.63.27 9.701.27 11.15V45.99c0 .911.378 1.715 1.188 2.09.054.054 0 .054.054.108l.162.053 18.041 4.074 16.907 3.806h.162l17.069-3.86 18.202-4.127h.109c.864-.268 1.512-1.018 1.512-1.93V10.829c.054-1.287-1.242-2.252-2.539-1.93z"/>
        <radialGradient id="e" cx="248.548%" cy="176.025%" r="361.83%" fx="248.548%" fy="176.025%" gradientTransform="matrix(1 0 0 .7857 0 .377)">
            <stop offset="0%" stop-color="#75CEFC"/>
            <stop offset="100%" stop-color="#00003D"/>
        </radialGradient>
        <path id="g" d="M71.137 8.898l.162-.054c.54-.107.54-.911 0-1.018L36.838 0h-.216L2.215 7.826c-.54.107-.54.911 0 1.018l.648.107C1.458 8.63.27 9.701.27 11.15V45.99c0 .911.378 1.715 1.188 2.09.054.054 0 .054.054.108l.162.053 18.041 4.074 16.907 3.806h.162l17.069-3.86 18.202-4.127h.109c.864-.268 1.512-1.018 1.512-1.93V10.829c.054-1.287-1.242-2.252-2.539-1.93z"/>
        <radialGradient id="i" cx="78.359%" cy="59.313%" r="617.234%" fx="78.359%" fy="59.313%" gradientTransform="matrix(.2385 0 0 1 .597 0)">
            <stop offset="0%" stop-color="#75CEFC"/>
            <stop offset="100%" stop-color="#00003D"/>
        </radialGradient>
        <path id="j" d="M71.137 8.898l.162-.054c.54-.107.54-.911 0-1.018L36.838 0h-.216L2.215 7.826c-.54.107-.54.911 0 1.018l.648.107C1.458 8.63.27 9.701.27 11.15V45.99c0 .911.378 1.715 1.188 2.09.054.054 0 .054.054.108l.162.053 18.041 4.074 16.907 3.806h.162l17.069-3.86 18.202-4.127h.109c.864-.268 1.512-1.018 1.512-1.93V10.829c.054-1.287-1.242-2.252-2.539-1.93z"/>
        <radialGradient id="l" cx="78.346%" cy="-177.08%" r="641.967%" fx="78.346%" fy="-177.08%" gradientTransform="matrix(.23425 0 0 1 .6 0)">
            <stop offset="0%" stop-color="#75CEFC"/>
            <stop offset="100%" stop-color="#00003D"/>
        </radialGradient>
        <path id="m" d="M71.137 8.898l.162-.054c.54-.107.54-.911 0-1.018L36.838 0h-.216L2.215 7.826c-.54.107-.54.911 0 1.018l.648.107C1.458 8.63.27 9.701.27 11.15V45.99c0 .911.378 1.715 1.188 2.09.054.054 0 .054.054.108l.162.053 18.041 4.074 16.907 3.806h.162l17.069-3.86 18.202-4.127h.109c.864-.268 1.512-1.018 1.512-1.93V10.829c.054-1.287-1.242-2.252-2.539-1.93z"/>
        <radialGradient id="n" cx="49.972%" cy="50.169%" r="105.046%" fx="49.972%" fy="50.169%" gradientTransform="scale(.49632 1) rotate(-17.899 .753 -1.108)">
            <stop offset="0%" stop-color="#FFF"/>
            <stop offset="100%" stop-color="#FFF" stop-opacity="0"/>
        </radialGradient>
        <path id="p" d="M71.137 8.898l.162-.054c.54-.107.54-.911 0-1.018L36.838 0h-.216L2.215 7.826c-.54.107-.54.911 0 1.018l.648.107C1.458 8.63.27 9.701.27 11.15V45.99c0 .911.378 1.715 1.188 2.09.054.054 0 .054.054.108l.162.053 18.041 4.074 16.907 3.806h.162l17.069-3.86 18.202-4.127h.109c.864-.268 1.512-1.018 1.512-1.93V10.829c.054-1.287-1.242-2.252-2.539-1.93z"/>
        <radialGradient id="q" cx="49.991%" cy="50.068%" r="174.665%" fx="49.991%" fy="50.068%" gradientTransform="scale(.29295 1) rotate(12.732 1.103 5.908)">
            <stop offset="0%" stop-color="#FFF"/>
            <stop offset="100%" stop-color="#FFF" stop-opacity="0"/>
        </radialGradient>
        <path id="s" d="M71.137 8.898l.162-.054c.54-.107.54-.911 0-1.018L36.838 0h-.216L2.215 7.826c-.54.107-.54.911 0 1.018l.648.107C1.458 8.63.27 9.701.27 11.15V45.99c0 .911.378 1.715 1.188 2.09.054.054 0 .054.054.108l.162.053 18.041 4.074 16.907 3.806h.162l17.069-3.86 18.202-4.127h.109c.864-.268 1.512-1.018 1.512-1.93V10.829c.054-1.287-1.242-2.252-2.539-1.93z"/>
        <radialGradient id="t" cx="49.909%" cy="50.133%" r="68.719%" fx="49.909%" fy="50.133%" gradientTransform="matrix(.7272 0 0 1 .136 0)">
            <stop offset="0%" stop-color="#FFF"/>
            <stop offset="100%" stop-color="#FFF" stop-opacity="0"/>
        </radialGradient>
        <path id="v" d="M71.137 8.898l.162-.054c.54-.107.54-.911 0-1.018L36.838 0h-.216L2.215 7.826c-.54.107-.54.911 0 1.018l.648.107C1.458 8.63.27 9.701.27 11.15V45.99c0 .911.378 1.715 1.188 2.09.054.054 0 .054.054.108l.162.053 18.041 4.074 16.907 3.806h.162l17.069-3.86 18.202-4.127h.109c.864-.268 1.512-1.018 1.512-1.93V10.829c.054-1.287-1.242-2.252-2.539-1.93z"/>
        <radialGradient id="w" cx="49.927%" cy="50.032%" r="83.928%" fx="49.927%" fy="50.032%" gradientTransform="scale(.6165 1) rotate(-17.899 .655 -.486)">
            <stop offset="0%" stop-color="#FFF"/>
            <stop offset="100%" stop-color="#FFF" stop-opacity="0"/>
        </radialGradient>
        <path id="y" d="M71.137 8.898l.162-.054c.54-.107.54-.911 0-1.018L36.838 0h-.216L2.215 7.826c-.54.107-.54.911 0 1.018l.648.107C1.458 8.63.27 9.701.27 11.15V45.99c0 .911.378 1.715 1.188 2.09.054.054 0 .054.054.108l.162.053 18.041 4.074 16.907 3.806h.162l17.069-3.86 18.202-4.127h.109c.864-.268 1.512-1.018 1.512-1.93V10.829c.054-1.287-1.242-2.252-2.539-1.93z"/>
        <radialGradient id="z" cx="50.008%" cy="50.158%" r="192.073%" fx="50.008%" fy="50.158%" gradientTransform="scale(.2666 1) rotate(-12.44 1.188 -5.81)">
            <stop offset="0%" stop-color="#FFF"/>
            <stop offset="100%" stop-color="#FFF" stop-opacity="0"/>
        </radialGradient>
        <path id="B" d="M71.137 8.898l.162-.054c.54-.107.54-.911 0-1.018L36.838 0h-.216L2.215 7.826c-.54.107-.54.911 0 1.018l.648.107C1.458 8.63.27 9.701.27 11.15V45.99c0 .911.378 1.715 1.188 2.09.054.054 0 .054.054.108l.162.053 18.041 4.074 16.907 3.806h.162l17.069-3.86 18.202-4.127h.109c.864-.268 1.512-1.018 1.512-1.93V10.829c.054-1.287-1.242-2.252-2.539-1.93z"/>
        <radialGradient id="C" cx="49.955%" cy="50.038%" r="63.443%" fx="49.955%" fy="50.038%" gradientTransform="scale(-1 -.82683) rotate(64.465 .877 -.845)">
            <stop offset="0%" stop-color="#FFF"/>
            <stop offset="100%" stop-color="#FFF" stop-opacity="0"/>
        </radialGradient>
        <path id="E" d="M71.137 8.898l.162-.054c.54-.107.54-.911 0-1.018L36.838 0h-.216L2.215 7.826c-.54.107-.54.911 0 1.018l.648.107C1.458 8.63.27 9.701.27 11.15V45.99c0 .911.378 1.715 1.188 2.09.054.054 0 .054.054.108l.162.053 18.041 4.074 16.907 3.806h.162l17.069-3.86 18.202-4.127h.109c.864-.268 1.512-1.018 1.512-1.93V10.829c.054-1.287-1.242-2.252-2.539-1.93z"/>
        <radialGradient id="F" cx="49.986%" cy="50.009%" r="58.788%" fx="49.986%" fy="50.009%" gradientTransform="scale(-1 -.8798) rotate(64.465 .847 -.827)">
            <stop offset="0%" stop-color="#FFF"/>
            <stop offset="100%" stop-color="#FFF" stop-opacity="0"/>
        </radialGradient>
        <path id="H" d="M71.137 8.898l.162-.054c.54-.107.54-.911 0-1.018L36.838 0h-.216L2.215 7.826c-.54.107-.54.911 0 1.018l.648.107C1.458 8.63.27 9.701.27 11.15V45.99c0 .911.378 1.715 1.188 2.09.054.054 0 .054.054.108l.162.053 18.041 4.074 16.907 3.806h.162l17.069-3.86 18.202-4.127h.109c.864-.268 1.512-1.018 1.512-1.93V10.829c.054-1.287-1.242-2.252-2.539-1.93z"/>
        <radialGradient id="I" cx="49.902%" cy="49.991%" r="51.178%" fx="49.902%" fy="49.991%" gradientTransform="matrix(-.43108 -.88723 .90231 -.42387 .263 1.155)">
            <stop offset="0%" stop-color="#FFF"/>
            <stop offset="100%" stop-color="#FFF" stop-opacity="0"/>
        </radialGradient>
        <path id="K" d="M71.137 8.898l.162-.054c.54-.107.54-.911 0-1.018L36.838 0h-.216L2.215 7.826c-.54.107-.54.911 0 1.018l.648.107C1.458 8.63.27 9.701.27 11.15V45.99c0 .911.378 1.715 1.188 2.09.054.054 0 .054.054.108l.162.053 18.041 4.074 16.907 3.806h.162l17.069-3.86 18.202-4.127h.109c.864-.268 1.512-1.018 1.512-1.93V10.829c.054-1.287-1.242-2.252-2.539-1.93z"/>
        <linearGradient id="M" x1="50.087%" x2="50.087%" y1="33.68%" y2="383.08%">
            <stop offset="0%" stop-color="#FFF" stop-opacity="0"/>
            <stop offset="2.987%" stop-color="#EDF0F6" stop-opacity=".03"/>
            <stop offset="11.56%" stop-color="#C0CADF" stop-opacity=".116"/>
            <stop offset="20.73%" stop-color="#98A8CA" stop-opacity=".207"/>
            <stop offset="30.36%" stop-color="#768CB9" stop-opacity=".304"/>
            <stop offset="40.59%" stop-color="#5B74AB" stop-opacity=".406"/>
            <stop offset="51.62%" stop-color="#4662A0" stop-opacity=".516"/>
            <stop offset="63.84%" stop-color="#375698" stop-opacity=".638"/>
            <stop offset="78.21%" stop-color="#2E4E93" stop-opacity=".782"/>
            <stop offset="100%" stop-color="#2B4C92"/>
        </linearGradient>
        <linearGradient id="N" x1="49.841%" x2="49.841%" y1="39.026%" y2="633.789%">
            <stop offset="0%" stop-color="#FFF" stop-opacity="0"/>
            <stop offset="2.987%" stop-color="#EDF0F6" stop-opacity=".03"/>
            <stop offset="11.56%" stop-color="#C0CADF" stop-opacity=".116"/>
            <stop offset="20.73%" stop-color="#98A8CA" stop-opacity=".207"/>
            <stop offset="30.36%" stop-color="#768CB9" stop-opacity=".304"/>
            <stop offset="40.59%" stop-color="#5B74AB" stop-opacity=".406"/>
            <stop offset="51.62%" stop-color="#4662A0" stop-opacity=".516"/>
            <stop offset="63.84%" stop-color="#375698" stop-opacity=".638"/>
            <stop offset="78.21%" stop-color="#2E4E93" stop-opacity=".782"/>
            <stop offset="100%" stop-color="#2B4C92"/>
        </linearGradient>
        <linearGradient id="O" x1="49.912%" x2="49.912%" y1="-.685%" y2="123.225%">
            <stop offset="0%" stop-color="#FFF" stop-opacity="0"/>
            <stop offset="2.987%" stop-color="#EDF0F6" stop-opacity=".03"/>
            <stop offset="11.56%" stop-color="#C0CADF" stop-opacity=".116"/>
            <stop offset="20.73%" stop-color="#98A8CA" stop-opacity=".207"/>
            <stop offset="30.36%" stop-color="#768CB9" stop-opacity=".304"/>
            <stop offset="40.59%" stop-color="#5B74AB" stop-opacity=".406"/>
            <stop offset="51.62%" stop-color="#4662A0" stop-opacity=".516"/>
            <stop offset="63.84%" stop-color="#375698" stop-opacity=".638"/>
            <stop offset="78.21%" stop-color="#2E4E93" stop-opacity=".782"/>
            <stop offset="100%" stop-color="#2B4C92"/>
        </linearGradient>
        <linearGradient id="P" x1="50.569%" x2="50.569%" y1="26.445%" y2="413.975%">
            <stop offset="0%" stop-color="#FFF" stop-opacity="0"/>
            <stop offset="2.987%" stop-color="#EDF0F6" stop-opacity=".03"/>
            <stop offset="11.56%" stop-color="#C0CADF" stop-opacity=".116"/>
            <stop offset="20.73%" stop-color="#98A8CA" stop-opacity=".207"/>
            <stop offset="30.36%" stop-color="#768CB9" stop-opacity=".304"/>
            <stop offset="40.59%" stop-color="#5B74AB" stop-opacity=".406"/>
            <stop offset="51.62%" stop-color="#4662A0" stop-opacity=".516"/>
            <stop offset="63.84%" stop-color="#375698" stop-opacity=".638"/>
            <stop offset="78.21%" stop-color="#2E4E93" stop-opacity=".782"/>
            <stop offset="100%" stop-color="#2B4C92"/>
        </linearGradient>
        <path id="Q" d="M71.137 8.898l.162-.054c.54-.107.54-.911 0-1.018L36.838 0h-.216L2.215 7.826c-.54.107-.54.911 0 1.018l.648.107C1.458 8.63.27 9.701.27 11.15V45.99c0 .911.378 1.715 1.188 2.09.054.054 0 .054.054.108l.162.053 18.041 4.074 16.907 3.806h.162l17.069-3.86 18.202-4.127h.109c.864-.268 1.512-1.018 1.512-1.93V10.829c.054-1.287-1.242-2.252-2.539-1.93z"/>
        <linearGradient id="R" x1="45.236%" x2="-9.241%" y1="46.699%" y2="73.321%">
            <stop offset="0%" stop-color="#FFF" stop-opacity="0"/>
            <stop offset="100%" stop-color="#FFF"/>
        </linearGradient>
        <path id="T" d="M71.137 8.898l.162-.054c.54-.107.54-.911 0-1.018L36.838 0h-.216L2.215 7.826c-.54.107-.54.911 0 1.018l.648.107C1.458 8.63.27 9.701.27 11.15V45.99c0 .911.378 1.715 1.188 2.09.054.054 0 .054.054.108l.162.053 18.041 4.074 16.907 3.806h.162l17.069-3.86 18.202-4.127h.109c.864-.268 1.512-1.018 1.512-1.93V10.829c.054-1.287-1.242-2.252-2.539-1.93z"/>
        <linearGradient id="U" x1="55.151%" x2="-11.478%" y1="46.865%" y2="75.932%">
            <stop offset="0%" stop-color="#FFF" stop-opacity="0"/>
            <stop offset="100%" stop-color="#FFF"/>
        </linearGradient>
        <path id="W" d="M71.137 8.898l.162-.054c.54-.107.54-.911 0-1.018L36.838 0h-.216L2.215 7.826c-.54.107-.54.911 0 1.018l.648.107C1.458 8.63.27 9.701.27 11.15V45.99c0 .911.378 1.715 1.188 2.09.054.054 0 .054.054.108l.162.053 18.041 4.074 16.907 3.806h.162l17.069-3.86 18.202-4.127h.109c.864-.268 1.512-1.018 1.512-1.93V10.829c.054-1.287-1.242-2.252-2.539-1.93z"/>
        <linearGradient id="X" x1="51.138%" x2="89.892%" y1="51.032%" y2="89.985%">
            <stop offset="0%" stop-color="#FFF" stop-opacity="0"/>
            <stop offset="100%" stop-color="#FFF"/>
        </linearGradient>
        <path id="Z" d="M71.137 8.898l.162-.054c.54-.107.54-.911 0-1.018L36.838 0h-.216L2.215 7.826c-.54.107-.54.911 0 1.018l.648.107C1.458 8.63.27 9.701.27 11.15V45.99c0 .911.378 1.715 1.188 2.09.054.054 0 .054.054.108l.162.053 18.041 4.074 16.907 3.806h.162l17.069-3.86 18.202-4.127h.109c.864-.268 1.512-1.018 1.512-1.93V10.829c.054-1.287-1.242-2.252-2.539-1.93z"/>
        <linearGradient id="aa" x1="41.966%" x2="90.479%" y1="27.934%" y2="92.096%">
            <stop offset="0%" stop-color="#FFF" stop-opacity="0"/>
            <stop offset="100%" stop-color="#FFF"/>
        </linearGradient>
        <path id="ac" d="M71.137 8.898l.162-.054c.54-.107.54-.911 0-1.018L36.838 0h-.216L2.215 7.826c-.54.107-.54.911 0 1.018l.648.107C1.458 8.63.27 9.701.27 11.15V45.99c0 .911.378 1.715 1.188 2.09.054.054 0 .054.054.108l.162.053 18.041 4.074 16.907 3.806h.162l17.069-3.86 18.202-4.127h.109c.864-.268 1.512-1.018 1.512-1.93V10.829c.054-1.287-1.242-2.252-2.539-1.93z"/>
        <linearGradient id="ad" x1="48.992%" x2="10.114%" y1="48.82%" y2="1.956%">
            <stop offset="0%" stop-color="#FFF" stop-opacity="0"/>
            <stop offset="100%" stop-color="#FFF"/>
        </linearGradient>
        <path id="af" d="M71.137 8.898l.162-.054c.54-.107.54-.911 0-1.018L36.838 0h-.216L2.215 7.826c-.54.107-.54.911 0 1.018l.648.107C1.458 8.63.27 9.701.27 11.15V45.99c0 .911.378 1.715 1.188 2.09.054.054 0 .054.054.108l.162.053 18.041 4.074 16.907 3.806h.162l17.069-3.86 18.202-4.127h.109c.864-.268 1.512-1.018 1.512-1.93V10.829c.054-1.287-1.242-2.252-2.539-1.93z"/>
        <linearGradient id="ag" x1="44.823%" x2="96.988%" y1="45.734%" y2="89.143%">
            <stop offset="0%" stop-color="#FFF" stop-opacity="0"/>
            <stop offset="100%" stop-color="#FFF"/>
        </linearGradient>
        <path id="ai" d="M71.137 8.898l.162-.054c.54-.107.54-.911 0-1.018L36.838 0h-.216L2.215 7.826c-.54.107-.54.911 0 1.018l.648.107C1.458 8.63.27 9.701.27 11.15V45.99c0 .911.378 1.715 1.188 2.09.054.054 0 .054.054.108l.162.053 18.041 4.074 16.907 3.806h.162l17.069-3.86 18.202-4.127h.109c.864-.268 1.512-1.018 1.512-1.93V10.829c.054-1.287-1.242-2.252-2.539-1.93z"/>
        <linearGradient id="aj" x1="50.498%" x2="89.535%" y1="26.516%" y2="145.069%">
            <stop offset="0%" stop-color="#FFF" stop-opacity="0"/>
            <stop offset="100%" stop-color="#FFF"/>
        </linearGradient>
        <path id="al" d="M71.137 8.898l.162-.054c.54-.107.54-.911 0-1.018L36.838 0h-.216L2.215 7.826c-.54.107-.54.911 0 1.018l.648.107C1.458 8.63.27 9.701.27 11.15V45.99c0 .911.378 1.715 1.188 2.09.054.054 0 .054.054.108l.162.053 18.041 4.074 16.907 3.806h.162l17.069-3.86 18.202-4.127h.109c.864-.268 1.512-1.018 1.512-1.93V10.829c.054-1.287-1.242-2.252-2.539-1.93z"/>
        <radialGradient id="am" cx="50.008%" cy="49.984%" r="133.193%" fx="50.008%" fy="49.984%" gradientTransform="matrix(-.00636 -.37551 .99998 -.00239 .003 .689)">
            <stop offset="0%" stop-color="#FFF"/>
            <stop offset="100%" stop-color="#FFF" stop-opacity="0"/>
        </radialGradient>
        <radialGradient id="ao" cx="-7.845%" cy="29.343%" r="308.565%" fx="-7.845%" fy="29.343%" gradientTransform="matrix(.9375 0 0 1 -.005 0)">
            <stop offset="0%" stop-color="#8FFFFF"/>
            <stop offset="100%" stop-color="#00003D"/>
        </radialGradient>
        <linearGradient id="ap" x1="68.846%" x2="-15.704%" y1="42.804%" y2="108.433%">
            <stop offset="0%" stop-color="#04006A" stop-opacity="0"/>
            <stop offset="100%" stop-color="#00003D"/>
        </linearGradient>
        <radialGradient id="aq" cx="148.656%" cy="31.267%" r="340.035%" fx="148.656%" fy="31.267%" gradientTransform="matrix(.875 0 0 1 .186 0)">
            <stop offset="0%" stop-color="#8FFFFF"/>
            <stop offset="100%" stop-color="#00003D"/>
        </radialGradient>
        <linearGradient id="ar" x1="32.972%" x2="95.666%" y1="41.4%" y2="88.193%">
            <stop offset="0%" stop-color="#04006A" stop-opacity="0"/>
            <stop offset="100%" stop-color="#00003D"/>
        </linearGradient>
        <radialGradient id="as" cx="69.518%" cy="55.826%" r="320.244%" fx="69.518%" fy="55.826%" gradientTransform="matrix(1 0 0 .68182 0 .178)">
            <stop offset="0%" stop-color="#8FFFFF"/>
            <stop offset="100%" stop-color="#00003D"/>
        </radialGradient>
        <linearGradient id="at" x1="50.231%" x2="49.958%" y1="23.301%" y2="132.981%">
            <stop offset="0%" stop-color="#04006A" stop-opacity="0"/>
            <stop offset="100%" stop-color="#00003D"/>
        </linearGradient>
        <radialGradient id="au" cx="50.003%" cy="49.921%" r="50.008%" fx="50.003%" fy="49.921%">
            <stop offset="0%" stop-color="#FFF"/>
            <stop offset="100%" stop-color="#FFF" stop-opacity="0"/>
        </radialGradient>
        <radialGradient id="av" cx="48.902%" cy="49.945%" r="50.287%" fx="48.902%" fy="49.945%" gradientTransform="matrix(1 0 0 .10433 0 .447)">
            <stop offset="0%" stop-color="#FFF"/>
            <stop offset="100%" stop-color="#FFF" stop-opacity="0"/>
        </radialGradient>
        <radialGradient id="aw" cx="50.002%" cy="48.783%" r="50.287%" fx="50.002%" fy="48.783%" gradientTransform="matrix(0 -1 .10433 0 .45 .988)">
            <stop offset="0%" stop-color="#FFF"/>
            <stop offset="100%" stop-color="#FFF" stop-opacity="0"/>
        </radialGradient>
        <radialGradient id="ax" cx="49.997%" cy="49.918%" r="7.377%" fx="49.997%" fy="49.918%" gradientTransform="matrix(.7071 -.7071 .7071 .7071 -.207 .5)">
            <stop offset="0%" stop-color="#FFF"/>
            <stop offset="100%" stop-color="#FFF" stop-opacity="0"/>
        </radialGradient>
        <radialGradient id="ay" cx="50.003%" cy="50.014%" r="7.39%" fx="50.003%" fy="50.014%" gradientTransform="scale(-.99823 -1) rotate(45 1.207 -1.208)">
            <stop offset="0%" stop-color="#FFF"/>
            <stop offset="100%" stop-color="#FFF" stop-opacity="0"/>
        </radialGradient>
    </defs>
    <g fill="none" fill-rule="evenodd">
        <g transform="translate(0 12.621)">
            <mask id="b" fill="#fff">
                <use xlink:href="#a"/>
            </mask>
            <g fill="url(#c)" fill-rule="nonzero" mask="url(#b)" opacity=".4">
                <path d="M36.244 18.493v34.84c0 1.448-1.35 2.52-2.809 2.198L1.188 48.188A2.247 2.247 0 0 1-.594 45.99V11.15c0-1.448 1.35-2.52 2.809-2.199l32.246 7.344a2.247 2.247 0 0 1 1.783 2.198z"/>
            </g>
        </g>
        <g transform="translate(0 12.621)">
            <mask id="f" fill="#fff">
                <use xlink:href="#d"/>
            </mask>
            <path fill="url(#e)" fill-rule="nonzero" d="M73.028 10.828v35.377c0 .91-.648 1.768-1.567 1.983l-32.787 7.45c-1.242.268-2.484-.643-2.484-1.983V18.278c0-.911.648-1.769 1.566-1.983l32.787-7.45c1.296-.269 2.485.696 2.485 1.983z" mask="url(#f)" opacity=".4"/>
        </g>
        <g transform="translate(0 12.621)">
            <mask id="h" fill="#fff">
                <use xlink:href="#g"/>
            </mask>
            <g fill="url(#i)" fill-rule="nonzero" mask="url(#h)" opacity=".4">
                <path d="M70.76 8.844L36.351 16.67h-.216L1.674 8.844c-.54-.107-.54-.911 0-1.018L36.136 0h.216l34.407 7.826c.54.107.54.911 0 1.018z"/>
            </g>
        </g>
        <g transform="translate(0 12.621)">
            <mask id="k" fill="#fff">
                <use xlink:href="#j"/>
            </mask>
            <g fill="url(#l)" fill-rule="nonzero" mask="url(#k)" opacity=".4">
                <path d="M71.515 48.134l-35.217 7.987h-.162L.918 48.134c-.378-.107-.378-.59 0-.697l35.218-7.986h.162l35.217 7.986c.378.108.378.644 0 .697z"/>
            </g>
        </g>
        <g transform="translate(0 12.621)">
            <mask id="o" fill="#fff">
                <use xlink:href="#m"/>
            </mask>
            <path fill="url(#n)" fill-rule="nonzero" d="M7.184 8.523C5.996 4.878 12.8-.643 22.416-3.752 32.031-6.861 40.781-6.38 41.97-2.734c1.189 3.645-5.617 9.22-15.232 12.275-9.614 3.055-18.365 2.68-19.553-1.018z" mask="url(#o)" opacity=".8"/>
        </g>
        <g transform="translate(0 12.621)">
            <mask id="r" fill="#fff">
                <use xlink:href="#p"/>
            </mask>
            <path fill="url(#q)" fill-rule="nonzero" d="M-16.096 4.985c.54-2.305 11.073-1.93 23.55.858C19.931 8.63 29.6 12.81 29.06 15.169c-.54 2.359-11.073 1.984-23.55-.857-12.478-2.841-22.146-6.969-21.606-9.327z" mask="url(#r)" opacity=".8"/>
        </g>
        <g transform="translate(0 12.621)">
            <mask id="u" fill="#fff">
                <use xlink:href="#s"/>
            </mask>
            <ellipse cx="58.552" cy="7.022" fill="url(#t)" fill-rule="nonzero" mask="url(#u)" opacity=".7" rx="13.342" ry="9.702"/>
        </g>
        <g transform="translate(0 12.621)">
            <mask id="x" fill="#fff">
                <use xlink:href="#v"/>
            </mask>
            <path fill="url(#w)" fill-rule="nonzero" d="M33.327 18.278c-1.026-3.055 2.809-7.075 8.534-8.898 5.672-1.876 11.127-.857 12.154 2.198 1.026 3.055-2.81 7.075-8.535 8.898-5.725 1.822-11.18.857-12.153-2.198z" mask="url(#x)" opacity=".8"/>
        </g>
        <g transform="translate(0 12.621)">
            <mask id="A" fill="#fff">
                <use xlink:href="#y"/>
            </mask>
            <path fill="url(#z)" fill-rule="nonzero" d="M49.1 13.454c-.325-1.554 7.777-4.663 18.202-6.968C77.727 4.18 86.423 3.59 86.747 5.146c.325 1.554-7.778 4.663-18.202 6.968-10.425 2.305-19.122 2.894-19.446 1.34z" mask="url(#A)"/>
        </g>
        <g transform="translate(0 12.621)">
            <mask id="D" fill="#fff">
                <use xlink:href="#B"/>
            </mask>
            <path fill="url(#C)" fill-rule="nonzero" d="M15.934 55.746C8.966 59.016-.378 53.923-4.969 44.382c-4.592-9.541-2.593-19.94 4.375-23.21 6.968-3.27 16.312 1.823 20.903 11.364 4.592 9.541 2.593 19.94-4.375 23.21z" mask="url(#D)" opacity=".5"/>
        </g>
        <g transform="translate(0 12.621)">
            <mask id="G" fill="#fff">
                <use xlink:href="#E"/>
            </mask>
            <path fill="url(#F)" fill-rule="nonzero" d="M58.768 59.176c-7.724 3.645-17.717-1.125-22.308-10.72-4.591-9.595-1.999-20.262 5.78-23.906 7.724-3.645 17.716 1.125 22.307 10.72 4.592 9.595 1.945 20.261-5.78 23.906z" mask="url(#G)" opacity=".7"/>
        </g>
        <g transform="translate(0 12.621)">
            <mask id="J" fill="#fff">
                <use xlink:href="#H"/>
            </mask>
            <path fill="url(#I)" fill-rule="nonzero" d="M79.023 40.79c-6.59 3.11-14.584.108-17.824-6.7-3.241-6.807-.54-14.847 6.103-17.956 6.644-3.109 14.584-.107 17.825 6.7 3.24 6.808.486 14.848-6.104 17.957z" mask="url(#J)" opacity=".6"/>
        </g>
        <g transform="translate(0 12.621)">
            <mask id="L" fill="#fff">
                <use xlink:href="#K"/>
            </mask>
            <g fill-rule="nonzero" mask="url(#L)">
                <path fill="url(#M)" d="M5.834 1.18L4.754.106.485 3.591H2.27L.972 4.878a1.191 1.191 0 0 0 0 1.715 1.213 1.213 0 0 0 1.729 0l3.025-3.002h3.78L5.187 7.88a1.191 1.191 0 0 0 0 1.716 1.213 1.213 0 0 0 1.728 0l6.05-6.004h.81L8.75 1.18H5.834z" transform="translate(9.723 14.472)"/>
                <path fill="url(#N)" d="M54.555 1.18h-1.62L47.64 3.912l2.7 2.68a1.213 1.213 0 0 0 1.73 0c.215-.214.377-.536.377-.858 0-.321-.108-.643-.378-.857L50.774 3.59h3.78c.703 0 1.243-.536 1.243-1.179 0-.697-.54-1.233-1.242-1.233z" transform="translate(9.723 14.472)"/>
                <path fill="url(#O)" d="M23.28 3.86l-7.022 6.914c-.108 0-.216.054-.27.054H7.67c-.702 0-1.242.536-1.242 1.179 0 .697.54 1.179 1.242 1.179h6.104l-2.755 2.68H6.806c-.702 0-1.242.536-1.242 1.18 0 .696.54 1.179 1.242 1.179h1.728l-2.646 2.733a1.255 1.255 0 0 0 0 1.77c.486.481 1.188.481 1.674 0l2.593-2.627v1.768c0 .697.54 1.233 1.188 1.233.702 0 1.188-.536 1.188-1.233v-4.234l2.755-2.627v6.004c0 .697.54 1.233 1.188 1.233.703 0 1.189-.536 1.189-1.233V12.81l7.616-7.504v10.505l-6.05 6.004a1.191 1.191 0 0 0 0 1.715c.216.215.54.375.864.375.325 0 .649-.107.865-.375l4.32-4.288v3.752l-3.024 3.002a1.191 1.191 0 0 0 0 1.715c.216.214.54.375.864.375.324 0 .648-.107.864-.375l1.297-1.286v3.752c0 .697.54 1.233 1.188 1.233.648 0 1.188-.536 1.188-1.233v-3.806l1.297 1.286c.216.215.54.376.864.376.324 0 .648-.108.864-.376a1.191 1.191 0 0 0 0-1.715l-3.025-3.002v-3.859l4.322 4.288c.216.215.54.376.864.376.324 0 .648-.108.864-.376a1.191 1.191 0 0 0 0-1.715l-5.941-5.896c0-.054-.109-.107-.109-.215V5.2l7.292 7.29v8.737c0 .697.649 1.233 1.297 1.233.324 0 .648-.16.864-.375.216-.215.27-.536.27-.858v-6.271l2.755 2.626v4.503c0 .697.594 1.233 1.296 1.233.324 0 .648-.161.918-.376.217-.214.27-.536.27-.857v-2.09l2.917 2.894a1.213 1.213 0 0 0 1.729 0c.486-.483.486-1.34 0-1.823l-2.593-2.68h1.62c.325 0 .649-.053.865-.268.216-.214.378-.536.378-.857 0-.697-.54-1.233-1.242-1.233h-4.052l-2.808-2.787h5.941c.324 0 .648-.108.864-.322.217-.214.379-.536.379-.858 0-.696-.54-1.232-1.243-1.232h-8.426L30.788 4.77l-4.267-1.18-3.24.268z" transform="translate(9.723 14.472)"/>
                <path fill="url(#P)" d="M39.97 1.072c-.053 0-.107.107-.215.107h-1.08l-2.053 2.412h3.349l6.05 6.004a1.213 1.213 0 0 0 1.728 0c.216-.215.378-.536.378-.858 0-.322-.108-.643-.378-.858l-4.321-4.288h.864l-4.321-2.519z" transform="translate(9.723 14.472)"/>
            </g>
        </g>
        <g transform="translate(0 12.621)">
            <mask id="S" fill="#fff">
                <use xlink:href="#Q"/>
            </mask>
            <path fill="url(#R)" fill-rule="nonzero" d="M1.674 24.389s-3.402-19.94 9.453-9.81c12.855 10.131-1.404 4.932-1.404 4.932L5.4 18.546 1.674 24.39z" mask="url(#S)" opacity=".6"/>
        </g>
        <g transform="translate(0 12.621)">
            <mask id="V" fill="#fff">
                <use xlink:href="#T"/>
            </mask>
            <path fill="url(#U)" fill-rule="nonzero" d="M1.296 38.379s-2.97 10.077 10.587 10.452c13.558.322-4.213-4.502-4.213-4.502l8.858-5.897L5.78 41.81l-4.484-3.43z" mask="url(#V)" opacity=".6"/>
        </g>
        <g transform="translate(0 12.621)">
            <mask id="Y" fill="#fff">
                <use xlink:href="#W"/>
            </mask>
            <path fill="url(#X)" fill-rule="nonzero" d="M71.407 17.85L67.14 39.611l-28.52 3.162z" mask="url(#Y)" opacity=".6"/>
        </g>
        <g transform="translate(0 12.621)">
            <mask id="ab" fill="#fff">
                <use xlink:href="#Z"/>
            </mask>
            <path fill="url(#aa)" fill-rule="nonzero" d="M31.058 20.154l-.054 5.628-13.233-7.343z" mask="url(#ab)" opacity=".6"/>
        </g>
        <g transform="translate(0 12.621)">
            <mask id="ae" fill="#fff">
                <use xlink:href="#ac"/>
            </mask>
            <path fill="url(#ad)" fill-rule="nonzero" d="M18.851 23.906L7.886 25.14 6.374 40.47z" mask="url(#ae)" opacity=".6"/>
        </g>
        <g transform="translate(0 12.621)">
            <mask id="ah" fill="#fff">
                <use xlink:href="#af"/>
            </mask>
            <path fill="url(#ag)" fill-rule="nonzero" d="M61.9 11.15l-21.227 3.537-.054 40.415 5.78-1.232z" mask="url(#ah)"/>
        </g>
        <g transform="translate(0 12.621)">
            <mask id="ak" fill="#fff">
                <use xlink:href="#ai"/>
            </mask>
            <path fill="url(#aj)" fill-rule="nonzero" d="M12.64 11.31l14.367 3.27 9.129 36.288z" mask="url(#ak)" opacity=".6"/>
        </g>
        <g transform="translate(0 12.621)">
            <mask id="an" fill="#fff">
                <use xlink:href="#al"/>
            </mask>
            <path fill="url(#am)" fill-rule="nonzero" d="M36.46 78.634c-5.132.053-9.399-11.042-9.453-24.764-.108-13.722 3.997-24.872 9.183-24.872 5.131-.053 9.398 11.042 9.452 24.764.108 13.722-3.997 24.818-9.182 24.872z" mask="url(#an)" opacity=".7"/>
        </g>
        <path fill="url(#ao)" fill-rule="nonzero" d="M44.176 23.436l2.619-2.653h8.391c.695 0 1.23-.541 1.23-1.19 0-.326-.161-.65-.375-.867-.214-.217-.534-.38-.855-.38h-5.933l2.62-2.76h4.222c.694 0 1.229-.488 1.229-1.192 0-.325-.16-.65-.374-.866-.214-.217-.535-.379-.855-.379H54.33l2.619-2.599a1.22 1.22 0 0 0 0-1.732c-.481-.488-1.283-.488-1.71 0l-2.833 2.87v-1.95c0-.325-.054-.65-.268-.866a1.281 1.281 0 0 0-.908-.38c-.695 0-1.23.542-1.23 1.246v4.386l-2.725 2.653v-6.119c0-.324-.054-.65-.321-.866-.214-.216-.535-.379-.855-.379-.695 0-1.23.542-1.23 1.245v8.393c0 .108 0 .162-.053.27l-4.17 4.17.535.595 2.994-.65z"/>
        <path fill="url(#ap)" fill-rule="nonzero" d="M40.648 23.449l.548.637 3.072-.753 1.591-1.679c-.603-.637-1.207-1.274-1.865-1.737l-3.346 3.532z"/>
        <path fill="url(#aq)" fill-rule="nonzero" d="M31.268 22.72l-3.725-3.61v-8.408c0-.7-.556-1.24-1.223-1.24-.722 0-1.223.54-1.223 1.24v5.928l-3.112-2.802V9.786c0-.7-.556-1.24-1.223-1.24-.723 0-1.223.54-1.223 1.24v1.617l-2.724-2.587a1.27 1.27 0 0 0-1.779 0c-.5.485-.5 1.186 0 1.67l2.835 2.695H15.87c-.723 0-1.278.54-1.278 1.186 0 .7.555 1.186 1.278 1.186h4.503c0 .323 0 .053.055.053l2.668 2.641H16.76c-.722 0-1.278.54-1.278 1.186 0 .7.556 1.186 1.278 1.186h8.783c.056 0 .111 0 .167.053l2.501 2.372h2.113l.945-.324z"/>
        <path fill="url(#ar)" fill-rule="nonzero" d="M28.721 19.917c-.829.574-1.717.766-2.665 1.085l2.014 2.042h2.25l.948-.51-2.547-2.617z"/>
        <path fill="url(#as)" fill-rule="nonzero" d="M37.18 22.288v-6.15c0-.054.055-.108.11-.216l6.11-5.935c.5-.485.5-1.24 0-1.726a1.266 1.266 0 0 0-1.777 0l-4.443 4.316V8.692l3.11-3.02c.5-.486.5-1.242 0-1.727a1.266 1.266 0 0 0-1.778 0L37.18 5.24V1.355c0-.701-.556-1.24-1.222-1.24-.667 0-1.222.539-1.222 1.24v3.777l-1.333-1.295a1.266 1.266 0 0 0-1.777 0c-.5.485-.5 1.24 0 1.726l3.11 3.022v3.776l-4.443-4.316a1.266 1.266 0 0 0-1.777 0c-.5.486-.5 1.24 0 1.727l6.22 6.042v6.528l1.222.702 1.222-.756z"/>
        <path fill="url(#at)" fill-rule="nonzero" d="M36.81 17.37c-.473.115-1.09-.059-1.373-.29v5.211l1.042.753 1.042-.869V16.79c-.19.348-.474.58-.71.58z"/>
        <g fill-rule="nonzero" opacity=".9" transform="translate(2.085 8.452)">
            <circle cx="21.313" cy="21.259" r="14.476" fill="url(#au)"/>
            <ellipse cx="21.313" cy="21.259" fill="url(#av)" rx="2.19" ry="20.992"/>
            <ellipse cx="21.313" cy="21.259" fill="url(#aw)" rx="20.992" ry="2.19"/>
            <path fill="url(#ax)" d="M19.764 22.808C11.538 14.582 5.609 7.265 6.464 6.41c.854-.855 8.172 5.074 16.398 13.3 8.226 8.226 14.155 15.544 13.3 16.399-.854.855-8.226-5.128-16.398-13.3z"/>
            <path fill="url(#ay)" d="M22.862 22.808C14.689 30.981 7.318 36.91 6.463 36.055c-.854-.854 5.075-8.172 13.3-16.398C27.99 11.43 35.309 5.555 36.164 6.41c.854.855-5.075 8.172-13.301 16.398z"/>
        </g>
    </g>
</svg>
